<?xml version="1.0" encoding="UTF-8" standalone="no"?>
<!DOCTYPE svg PUBLIC "-//W3C//DTD SVG 1.1//EN" "http://www.w3.org/Graphics/SVG/1.1/DTD/svg11.dtd">
<svg width="100%" height="100%" viewBox="0 0 2632 564" version="1.1" xmlns="http://www.w3.org/2000/svg" xmlns:xlink="http://www.w3.org/1999/xlink" xml:space="preserve" xmlns:serif="http://www.serif.com/" style="fill-rule:evenodd;clip-rule:evenodd;stroke-linejoin:round;stroke-miterlimit:2;">
    <g transform="matrix(440,460,460,-440,130.744,106.55)">
        <path d="M0.027,0.078L0.036,0.07L-0.02,0.012L0.429,-0.177L0.223,0.266L0.17,0.211L0.162,0.219L0.273,0.335L0.281,0.327L0.231,0.275L0.508,-0.318L0.491,-0.335L-0.11,-0.082L-0.158,-0.133L-0.167,-0.125L0.027,0.078Z" style="fill:url(#_Linear1);fill-rule:nonzero;"/>
    </g>
    <g transform="matrix(440,460,460,-440,265.632,-26.2992)">
        <path d="M0.545,0.106C0.556,0.09 0.565,0.075 0.572,0.06C0.579,0.044 0.583,0.03 0.584,0.015C0.586,0.001 0.583,-0.014 0.578,-0.028C0.572,-0.042 0.562,-0.057 0.548,-0.072L0.515,-0.106L0.524,-0.114L0.563,-0.073C0.576,-0.059 0.59,-0.05 0.604,-0.045C0.618,-0.04 0.632,-0.038 0.647,-0.04C0.661,-0.041 0.676,-0.045 0.69,-0.052C0.705,-0.059 0.72,-0.066 0.734,-0.074L0.742,-0.067L0.553,0.114L0.545,0.106Z" style="fill:url(#_Linear2);fill-rule:nonzero;"/>
    </g>
    <g transform="matrix(440,460,460,-440,351.749,-108.672)">
        <path d="M0.319,-0.106L0.328,-0.114L0.42,-0.017C0.439,0.003 0.459,0.016 0.479,0.023C0.5,0.029 0.52,0.032 0.538,0.031C0.557,0.03 0.574,0.027 0.589,0.021C0.604,0.016 0.616,0.011 0.625,0.006L0.633,0.014L0.529,0.114L0.319,-0.106Z" style="fill:url(#_Linear3);fill-rule:nonzero;"/>
    </g>
    <g transform="matrix(440,460,460,-440,198.316,38.0906)">
        <path d="M0.845,0.178C0.858,0.157 0.869,0.136 0.877,0.113C0.884,0.091 0.889,0.069 0.889,0.047C0.889,0.024 0.885,0.002 0.877,-0.019C0.869,-0.04 0.856,-0.059 0.838,-0.078L0.743,-0.178L0.752,-0.186L0.985,0.058L0.852,0.186L0.845,0.178Z" style="fill:url(#_Linear4);fill-rule:nonzero;"/>
    </g>
    <g transform="matrix(1,0,0,1,867.285,248.344)">
        <path d="M0,99.661C12.396,71.95 40.351,1.458 44.969,-13.369C45.941,-16.529 46.913,-19.446 46.913,-21.148C46.913,-22.849 46.185,-24.794 43.997,-25.523C41.566,-26.252 39.135,-26.252 36.705,-26.252C35.489,-26.252 34.273,-26.982 34.273,-27.954C34.273,-29.169 35.732,-29.655 39.135,-29.655C47.643,-29.655 57.365,-29.169 60.039,-29.169C61.255,-29.169 70.493,-29.655 76.812,-29.655C79,-29.655 80.215,-29.169 80.215,-28.197C80.215,-27.224 79.486,-26.252 77.784,-26.252C76.326,-26.252 71.465,-26.252 67.575,-23.822C64.659,-21.877 61.255,-18.96 55.665,-4.862C53.234,0.973 42.782,25.766 31.843,51.046C18.717,81.187 9.237,103.55 4.375,113.76C-1.459,126.157 -2.674,129.316 -4.862,129.316C-7.292,129.316 -8.75,126.642 -12.883,116.677L-65.388,-9.966C-70.249,-21.633 -73.166,-23.822 -80.215,-25.523C-83.618,-26.252 -87.264,-26.252 -88.479,-26.252C-89.695,-26.252 -90.181,-27.468 -90.181,-28.197C-90.181,-29.412 -87.994,-29.655 -84.59,-29.655C-74.381,-29.655 -62.228,-29.169 -59.554,-29.169C-57.366,-29.169 -47.886,-29.655 -39.622,-29.655C-35.732,-29.655 -33.787,-29.169 -33.787,-28.197C-33.787,-27.224 -34.517,-26.252 -35.976,-26.252C-38.406,-26.252 -41.809,-26.009 -43.754,-25.28C-45.942,-24.308 -46.185,-23.092 -46.185,-21.633C-46.185,-18.96 -43.511,-12.64 -40.351,-4.375L0,99.661Z" style="fill:white;fill-rule:nonzero;"/>
    </g>
    <g transform="matrix(1,0,0,1,1039.87,313.975)">
        <path d="M0,-35.49C0,-67.576 0,-73.409 -0.486,-79.973C-0.972,-87.022 -2.187,-90.425 -9.236,-91.397C-10.938,-91.64 -14.585,-91.883 -16.529,-91.883C-17.259,-91.883 -18.231,-92.855 -18.231,-93.585C-18.231,-94.8 -17.259,-95.286 -14.828,-95.286C-5.105,-95.286 8.75,-94.8 9.966,-94.8C11.425,-94.8 56.15,-94.557 61.012,-94.8C65.145,-95.043 69.034,-95.772 70.735,-96.016C71.707,-96.259 72.679,-96.988 73.653,-96.988C74.381,-96.988 74.625,-96.016 74.625,-95.043C74.625,-93.585 73.409,-91.154 72.923,-85.32C72.679,-83.375 72.194,-74.139 71.707,-71.708C71.464,-70.736 70.735,-69.52 69.763,-69.52C68.548,-69.52 68.062,-70.493 68.062,-72.195C68.062,-73.653 67.819,-77.056 66.847,-79.486C65.388,-82.889 63.199,-84.348 51.532,-85.806C47.887,-86.292 23.092,-86.536 20.661,-86.536C19.689,-86.536 19.446,-85.806 19.446,-84.348L19.446,-28.198C19.446,-26.739 19.446,-26.01 20.661,-26.01C23.335,-26.01 51.532,-26.01 56.395,-26.496C61.498,-26.982 64.658,-27.225 66.847,-29.413C68.304,-30.871 69.276,-32.087 70.005,-32.087C70.735,-32.087 71.222,-31.601 71.222,-30.385C71.222,-29.17 70.005,-25.766 69.52,-18.96C69.034,-14.828 68.548,-7.05 68.548,-5.591C68.548,-3.89 68.062,-1.702 66.603,-1.702C65.63,-1.702 65.145,-2.431 65.145,-3.647C65.145,-5.591 65.145,-7.779 64.173,-10.453C63.443,-13.369 61.498,-15.801 53.234,-16.773C47.4,-17.502 24.551,-17.745 20.905,-17.745C19.689,-17.745 19.446,-17.016 19.446,-16.286L19.446,0.972C19.446,8.021 19.204,32.086 19.446,36.218C19.932,50.073 23.822,52.747 44.969,52.747C50.56,52.747 60.77,52.747 66.36,50.559C71.951,48.129 74.868,44.482 76.083,36.218C76.569,33.787 77.055,33.058 78.271,33.058C79.485,33.058 79.729,34.759 79.729,36.218C79.729,37.677 78.028,51.774 76.812,56.15C75.354,61.498 73.166,61.498 64.901,61.498C48.858,61.498 36.462,61.011 27.71,60.768C18.717,60.282 13.127,60.282 9.966,60.282C9.48,60.282 5.349,60.282 0.729,60.526C-3.403,60.768 -8.264,61.011 -11.667,61.011C-13.855,61.011 -15.07,60.526 -15.07,59.31C-15.07,58.581 -14.585,57.609 -13.369,57.609C-11.424,57.609 -8.751,56.879 -6.807,56.636C-2.674,55.907 -2.187,51.774 -1.215,45.698C0,37.19 0,20.904 0,0.972L0,-35.49Z" style="fill:white;fill-rule:nonzero;"/>
    </g>
    <g transform="matrix(1,0,0,1,1254.02,278.729)">
        <path d="M0,36.218C0,56.15 0,72.436 0.972,80.944C1.701,87.02 2.43,90.909 8.75,91.883C11.909,92.368 16.529,92.855 18.473,92.855C19.687,92.855 20.175,93.827 20.175,94.556C20.175,95.528 19.202,96.258 16.771,96.258C4.86,96.258 -8.995,95.528 -9.967,95.528C-11.182,95.528 -24.552,96.258 -31.114,96.258C-33.302,96.258 -34.517,95.772 -34.517,94.556C-34.517,93.827 -34.031,92.855 -32.815,92.855C-30.871,92.855 -28.197,92.368 -26.253,91.883C-22.12,90.909 -21.392,87.02 -20.662,80.944C-19.689,72.436 -19.447,56.15 -19.447,36.218L-19.447,-0.244C-19.447,-32.33 -19.447,-38.163 -19.933,-44.727C-20.419,-51.776 -22.12,-54.935 -26.738,-55.907C-29.17,-56.394 -31.843,-56.637 -33.302,-56.637C-34.274,-56.637 -35.004,-57.609 -35.004,-58.339C-35.004,-59.554 -34.031,-60.04 -31.601,-60.04C-24.552,-60.04 -11.182,-59.554 -9.967,-59.554C-8.995,-59.554 4.86,-60.04 11.424,-60.04C13.855,-60.04 14.827,-59.554 14.827,-58.339C14.827,-57.609 13.855,-56.637 13.126,-56.637C11.667,-56.637 10.208,-56.637 7.778,-56.151C1.944,-54.935 0.728,-52.018 0.242,-44.727C0,-38.163 0,-32.33 0,-0.244L0,36.218Z" style="fill:white;fill-rule:nonzero;"/>
    </g>
    <g transform="matrix(1,0,0,1,1394.03,245.427)">
        <path d="M0,101.362C0.487,118.378 2.431,123.483 8.266,124.941C12.154,125.913 17.016,126.156 18.96,126.156C19.933,126.156 20.662,126.885 20.662,127.858C20.662,129.073 19.203,129.559 16.771,129.559C4.618,129.559 -3.89,128.83 -5.834,128.83C-7.778,128.83 -16.771,129.559 -26.495,129.559C-28.683,129.559 -29.898,129.316 -29.898,127.858C-29.898,126.885 -29.169,126.156 -28.197,126.156C-26.495,126.156 -22.605,125.913 -19.445,124.941C-14.098,123.483 -13.368,117.892 -13.368,99.174L-13.368,-19.203C-13.368,-27.468 -12.153,-29.656 -10.452,-29.656C-8.021,-29.656 -4.375,-25.523 -2.188,-23.335C1.215,-19.932 32.329,13.126 65.388,47.156C86.535,69.033 109.385,93.584 115.947,100.39L113.76,-3.16C113.516,-16.529 112.301,-21.148 105.737,-22.363C101.849,-23.093 96.987,-23.335 95.285,-23.335C93.828,-23.335 93.584,-24.551 93.584,-25.28C93.584,-26.495 95.285,-26.739 97.717,-26.739C107.439,-26.739 117.648,-26.252 120.08,-26.252C122.511,-26.252 129.56,-26.739 138.311,-26.739C140.498,-26.739 142.2,-26.495 142.2,-25.28C142.2,-24.551 141.227,-23.335 139.769,-23.335C138.797,-23.335 137.096,-23.335 134.664,-22.849C127.615,-21.391 127.129,-17.259 127.129,-4.862L126.644,116.19C126.644,129.802 126.399,131.018 124.941,131.018C122.753,131.018 120.566,129.316 108.655,118.378C106.467,116.433 75.596,86.049 52.99,62.47C28.197,36.461 4.133,11.181 -2.431,3.889L0,101.362Z" style="fill:white;fill-rule:nonzero;"/>
    </g>
    <g transform="matrix(1,0,0,1,1788.06,313.975)">
        <path d="M0,-35.49C0,-67.576 0,-73.409 -0.487,-79.973C-0.974,-87.022 -2.188,-90.425 -9.237,-91.397C-10.939,-91.64 -14.585,-91.883 -16.53,-91.883C-17.259,-91.883 -18.232,-92.855 -18.232,-93.585C-18.232,-94.8 -17.259,-95.286 -14.829,-95.286C-5.105,-95.286 8.75,-94.8 9.965,-94.8C11.424,-94.8 56.15,-94.557 61.011,-94.8C65.144,-95.043 69.032,-95.772 70.733,-96.016C71.707,-96.259 72.679,-96.988 73.651,-96.988C74.381,-96.988 74.623,-96.016 74.623,-95.043C74.623,-93.585 73.408,-91.154 72.922,-85.32C72.679,-83.375 72.192,-74.139 71.707,-71.708C71.463,-70.736 70.733,-69.52 69.762,-69.52C68.547,-69.52 68.06,-70.493 68.06,-72.195C68.06,-73.653 67.817,-77.056 66.845,-79.486C65.386,-82.889 63.199,-84.348 51.531,-85.806C47.885,-86.292 23.091,-86.536 20.661,-86.536C19.687,-86.536 19.445,-85.806 19.445,-84.348L19.445,-28.198C19.445,-26.739 19.445,-26.01 20.661,-26.01C23.335,-26.01 51.531,-26.01 56.393,-26.496C61.497,-26.982 64.656,-27.225 66.845,-29.413C68.304,-30.871 69.276,-32.087 70.006,-32.087C70.733,-32.087 71.221,-31.601 71.221,-30.385C71.221,-29.17 70.006,-25.766 69.519,-18.96C69.032,-14.828 68.547,-7.05 68.547,-5.591C68.547,-3.89 68.06,-1.702 66.603,-1.702C65.63,-1.702 65.144,-2.431 65.144,-3.647C65.144,-5.591 65.144,-7.779 64.171,-10.453C63.441,-13.369 61.497,-15.801 53.232,-16.773C47.398,-17.502 24.55,-17.745 20.904,-17.745C19.687,-17.745 19.445,-17.016 19.445,-16.286L19.445,0.972C19.445,8.021 19.202,32.086 19.445,36.218C19.932,50.073 23.82,52.747 44.969,52.747C50.559,52.747 60.769,52.747 66.358,50.559C71.949,48.129 74.866,44.482 76.082,36.218C76.567,33.787 77.055,33.058 78.27,33.058C79.484,33.058 79.729,34.759 79.729,36.218C79.729,37.677 78.026,51.774 76.811,56.15C75.353,61.498 73.164,61.498 64.9,61.498C48.857,61.498 36.461,61.011 27.71,60.768C18.716,60.282 13.125,60.282 9.965,60.282C9.479,60.282 5.347,60.282 0.728,60.526C-3.403,60.768 -8.266,61.011 -11.669,61.011C-13.855,61.011 -15.072,60.526 -15.072,59.31C-15.072,58.581 -14.585,57.609 -13.37,57.609C-11.426,57.609 -8.752,56.879 -6.807,56.636C-2.676,55.907 -2.188,51.774 -1.217,45.698C0,37.19 0,20.904 0,0.972L0,-35.49Z" style="fill:white;fill-rule:nonzero;"/>
    </g>
    <g transform="matrix(1,0,0,1,1991.75,245.427)">
        <path d="M0,101.362C0.486,118.378 2.431,123.483 8.265,124.941C12.153,125.913 17.016,126.156 18.96,126.156C19.932,126.156 20.661,126.885 20.661,127.858C20.661,129.073 19.202,129.559 16.771,129.559C4.617,129.559 -3.891,128.83 -5.835,128.83C-7.779,128.83 -16.772,129.559 -26.496,129.559C-28.684,129.559 -29.899,129.316 -29.899,127.858C-29.899,126.885 -29.17,126.156 -28.198,126.156C-26.496,126.156 -22.606,125.913 -19.446,124.941C-14.099,123.483 -13.369,117.892 -13.369,99.174L-13.369,-19.203C-13.369,-27.468 -12.154,-29.656 -10.452,-29.656C-8.021,-29.656 -4.376,-25.523 -2.188,-23.335C1.215,-19.932 32.328,13.126 65.388,47.156C86.534,69.033 109.384,93.584 115.946,100.39L113.76,-3.16C113.516,-16.529 112.301,-21.148 105.737,-22.363C101.849,-23.093 96.986,-23.335 95.285,-23.335C93.827,-23.335 93.583,-24.551 93.583,-25.28C93.583,-26.495 95.285,-26.739 97.716,-26.739C107.438,-26.739 117.648,-26.252 120.079,-26.252C122.51,-26.252 129.559,-26.739 138.31,-26.739C140.498,-26.739 142.199,-26.495 142.199,-25.28C142.199,-24.551 141.226,-23.335 139.769,-23.335C138.796,-23.335 137.095,-23.335 134.664,-22.849C127.614,-21.391 127.128,-17.259 127.128,-4.862L126.643,116.19C126.643,129.802 126.398,131.018 124.941,131.018C122.753,131.018 120.565,129.316 108.654,118.378C106.467,116.433 75.596,86.049 52.989,62.47C28.197,36.461 4.132,11.181 -2.432,3.889L0,101.362Z" style="fill:white;fill-rule:nonzero;"/>
    </g>
    <g transform="matrix(1,0,0,1,2292.92,248.344)">
        <path d="M0,99.661C12.396,71.95 40.351,1.458 44.969,-13.369C45.94,-16.529 46.913,-19.446 46.913,-21.148C46.913,-22.849 46.184,-24.794 43.997,-25.523C41.565,-26.252 39.135,-26.252 36.703,-26.252C35.488,-26.252 34.273,-26.982 34.273,-27.954C34.273,-29.169 35.731,-29.655 39.135,-29.655C47.643,-29.655 57.365,-29.169 60.039,-29.169C61.255,-29.169 70.491,-29.655 76.812,-29.655C78.999,-29.655 80.215,-29.169 80.215,-28.197C80.215,-27.224 79.485,-26.252 77.784,-26.252C76.325,-26.252 71.465,-26.252 67.574,-23.822C64.658,-21.877 61.255,-18.96 55.664,-4.862C53.232,0.973 42.78,25.766 31.843,51.046C18.717,81.187 9.237,103.55 4.375,113.76C-1.459,126.157 -2.674,129.316 -4.862,129.316C-7.293,129.316 -8.751,126.642 -12.884,116.677L-65.388,-9.966C-70.249,-21.633 -73.166,-23.822 -80.216,-25.523C-83.618,-26.252 -87.265,-26.252 -88.479,-26.252C-89.695,-26.252 -90.181,-27.468 -90.181,-28.197C-90.181,-29.412 -87.994,-29.655 -84.591,-29.655C-74.381,-29.655 -62.228,-29.169 -59.554,-29.169C-57.367,-29.169 -47.887,-29.655 -39.622,-29.655C-35.731,-29.655 -33.788,-29.169 -33.788,-28.197C-33.788,-27.224 -34.517,-26.252 -35.976,-26.252C-38.407,-26.252 -41.809,-26.009 -43.754,-25.28C-45.941,-24.308 -46.186,-23.092 -46.186,-21.633C-46.186,-18.96 -43.511,-12.64 -40.352,-4.375L0,99.661Z" style="fill:white;fill-rule:nonzero;"/>
    </g>
    <g transform="matrix(1,0,0,1,2492,272.409)">
        <path d="M0,48.858C0,37.676 -1.459,33.545 -4.619,27.711C-6.321,24.551 -35.246,-21.391 -42.538,-32.329C-47.643,-40.108 -52.747,-44.725 -56.638,-47.399C-59.797,-49.344 -63.929,-50.316 -65.631,-50.316C-66.847,-50.316 -67.819,-51.288 -67.819,-52.261C-67.819,-53.233 -67.09,-53.72 -65.146,-53.72C-61.013,-53.72 -44.969,-53.233 -43.997,-53.233C-42.539,-53.233 -33.787,-53.72 -25.523,-53.72C-23.093,-53.72 -22.605,-53.233 -22.605,-52.261C-22.605,-51.532 -24.064,-50.803 -26.009,-50.074C-27.711,-49.344 -28.683,-48.372 -28.683,-46.671C-28.683,-43.753 -27.226,-41.323 -25.767,-38.649L13.126,25.766C17.501,17.016 44.239,-27.225 48.128,-34.03C50.803,-38.649 51.775,-42.052 51.775,-44.725C51.775,-47.642 50.803,-49.344 48.372,-50.074C46.427,-50.56 45.212,-51.532 45.212,-52.504C45.212,-53.233 46.427,-53.72 48.614,-53.72C54.205,-53.72 61.74,-53.233 63.442,-53.233C64.901,-53.233 80.214,-53.72 84.347,-53.72C85.806,-53.72 87.021,-53.233 87.021,-52.504C87.021,-51.532 86.048,-50.316 84.347,-50.316C81.917,-50.316 77.784,-49.587 74.381,-47.642C70.248,-45.212 68.304,-43.024 63.685,-37.434C56.636,-29.169 26.494,19.446 22.119,28.197C18.473,35.489 19.445,42.052 19.445,48.858L19.445,66.603C19.445,70.006 19.445,78.757 20.175,87.264C20.661,93.341 22.119,97.23 28.439,98.203C31.356,98.689 36.219,99.175 38.162,99.175C39.377,99.175 39.864,100.148 39.864,100.877C39.864,101.849 38.648,102.578 36.461,102.578C24.55,102.578 10.694,101.849 9.479,101.849C8.507,101.849 -5.104,102.578 -11.425,102.578C-13.855,102.578 -14.827,102.092 -14.827,100.877C-14.827,100.148 -14.342,99.175 -13.126,99.175C-11.182,99.175 -8.751,98.689 -6.807,98.203C-2.431,97.23 -0.973,93.341 -0.487,87.264C0,78.757 0,70.006 0,66.603L0,48.858Z" style="fill:white;fill-rule:nonzero;"/>
    </g>
    <g transform="matrix(636.553,2.38742e-12,2.38742e-12,-636.553,177.309,281.86)">
        <rect x="0.852" y="-0.443" width="0.011" height="0.886" style="fill:url(#_Linear5);"/>
    </g>
    <g transform="matrix(1,0,0,1,1301.21,60.424)">
        <text x="1268.68px" y="153.674px" style="font-family:'ArialMT', 'Arial', sans-serif;font-size:69.333px;fill:white;">®</text>
    </g>
    <defs>
        <linearGradient id="_Linear1" x1="0" y1="0" x2="1" y2="0" gradientUnits="userSpaceOnUse" gradientTransform="matrix(1,0,0,-1,0,8.35444e-07)"><stop offset="0" style="stop-color:rgb(219,183,135);stop-opacity:1"/><stop offset="1" style="stop-color:rgb(154,108,74);stop-opacity:1"/></linearGradient>
        <linearGradient id="_Linear2" x1="0" y1="0" x2="1" y2="0" gradientUnits="userSpaceOnUse" gradientTransform="matrix(1,0,0,-1,0,-4.79821e-07)"><stop offset="0" style="stop-color:rgb(219,183,135);stop-opacity:1"/><stop offset="1" style="stop-color:rgb(154,108,74);stop-opacity:1"/></linearGradient>
        <linearGradient id="_Linear3" x1="0" y1="0" x2="1" y2="0" gradientUnits="userSpaceOnUse" gradientTransform="matrix(1,0,0,-1,0,-8.0875e-07)"><stop offset="0" style="stop-color:rgb(219,183,135);stop-opacity:1"/><stop offset="1" style="stop-color:rgb(154,108,74);stop-opacity:1"/></linearGradient>
        <linearGradient id="_Linear4" x1="0" y1="0" x2="1" y2="0" gradientUnits="userSpaceOnUse" gradientTransform="matrix(1,0,0,-1,0,-3.60902e-07)"><stop offset="0" style="stop-color:rgb(219,183,135);stop-opacity:1"/><stop offset="1" style="stop-color:rgb(154,108,74);stop-opacity:1"/></linearGradient>
        <linearGradient id="_Linear5" x1="0" y1="0" x2="1" y2="0" gradientUnits="userSpaceOnUse" gradientTransform="matrix(0.691223,-0.722642,-0.722642,-0.691223,0.264786,0.619688)"><stop offset="0" style="stop-color:rgb(219,183,135);stop-opacity:1"/><stop offset="1" style="stop-color:rgb(154,108,74);stop-opacity:1"/></linearGradient>
    </defs>
</svg>
